<svg width="28" height="28" viewBox="0 0 24 24" fill="none" stroke="#00ff88" stroke-width="2" stroke-linecap="round" stroke-linejoin="round">
  <circle cx="12" cy="12" r="3"/>
  <path d="M19.4 15a1.65 1.65 0 0 0 .33 1.82l.06.06a2 2 0 1 1-2.83 2.83l-.06-.06A1.65 1.65 0 0 0 15 19.4a1.65 1.65 0 0 0-1 .6 1.65 1.65 0 0 0-.33 1.82v.06a2 2 0 1 1-4 0v-.06A1.65 1.65 0 0 0 9 19.4a1.65 1.65 0 0 0-1-.6 1.65 1.65 0 0 0-1.82.33l-.06.06A2 2 0 1 1 3.29 16l.06-.06A1.65 1.65 0 0 0 4.6 15a1.65 1.65 0 0 0-.6-1 1.65 1.65 0 0 0-1.82-.33h-.06a2 2 0 1 1 0-4h.06A1.65 1.65 0 0 0 4 9a1.65 1.65 0 0 0-.6-1 1.65 1.65 0 0 0-1.05-.45 2 2 0 1 1 2.83-2.83l.06.06A1.65 1.65 0 0 0 9 4.6a1.65 1.65 0 0 0 1-.6 1.65 1.65 0 0 0 .33-1.82V2a2 2 0 1 1 4 0v.06A1.65 1.65 0 0 0 15 4.6a1.65 1.65 0 0 0 1 .6 1.65 1.65 0 0 0 1.82-.33l.06-.06A2 2 0 1 1 21 7.29l-.06.06A1.65 1.65 0 0 0 19.4 9a1.65 1.65 0 0 0 .6 1c.29.26.64.41 1.02.45a2 2 0 1 1 0 4c-.38.04-.73.19-1.02.45z"/>
</svg>
